<svg width="92.243408" height="83.145294" viewBox="0 0 92.2434 83.1453" fill="none" xmlns="http://www.w3.org/2000/svg" xmlns:xlink="http://www.w3.org/1999/xlink">
	<desc>
			Created with Pixso.
	</desc>
	<defs/>
	<path id="Vector" d="M31.7 71.15C32.25 71.65 32.88 72.06 33.55 72.36C33.74 72.45 33.93 72.54 34.13 72.62C35.81 73.31 37.62 73.62 39.43 73.52L39.52 73.52C40.33 73.48 41.11 73.25 41.82 72.84C42.31 72.54 42.69 72.07 42.88 71.51C42.95 71.3 43.05 71.09 43.17 70.9C43.56 70.33 44.02 69.82 44.56 69.38C45.73 68.36 47.39 67.24 49.26 65.89C54.39 62.22 61.14 56.86 63.92 47.12C66.58 37.8 64.96 25.31 53.33 21.49L53.06 21.4C41.52 17.75 30.14 23.31 26.52 36.13C23.06 48.39 29.85 59.02 30.96 65.51C31.19 66.58 31.16 67.7 30.86 68.75L30.83 68.85C30.6 69.66 30.97 70.46 31.7 71.15Z" fill="#FFAE00" fill-opacity="1.000000" fill-rule="nonzero"/>
	<g opacity="0.750000">
		<path id="Vector" d="M33.13 74.54C33.13 74.54 39.65 47.81 35.25 45.65C30.85 43.48 30.25 50.02 33.21 51.87C37.18 54.37 44.09 55.21 45.21 50.51C46.09 46.86 41.5 45.87 40.28 49.65C39.45 52.22 41 54.57 44.32 55.36C49.93 56.7 53.88 54.91 52.13 50.85C51.18 48.62 48.22 49.56 47.59 52.4C46.96 55.23 38.8 76.18 38.8 76.18" stroke="#FFFFFF" stroke-opacity="1.000000" stroke-width="3.060000" stroke-linejoin="round" stroke-linecap="round"/>
	</g>
	<path id="Vector" d="M33.6 82.87L33.15 82.74C31.4 82.23 29.92 81.06 29.04 79.47C28.15 77.87 27.94 76 28.44 74.25C28.44 74.25 29.88 65.87 30.93 65.51C31.98 65.15 44.34 68.72 44.61 69.42C44.88 70.12 42.11 78.15 42.11 78.15C41.87 79.02 41.45 79.83 40.89 80.54C40.33 81.25 39.63 81.84 38.84 82.28C38.05 82.72 37.18 83 36.28 83.1C35.38 83.2 34.47 83.12 33.6 82.87Z" fill="#3B3B4C" fill-opacity="1.000000" fill-rule="nonzero"/>
	<path id="Vector" d="M28.87 69.51L28.84 69.7C28.75 70.23 29.11 70.73 29.64 70.82L43.45 73.12C43.98 73.2 44.48 72.85 44.56 72.32L44.6 72.13C44.68 71.6 44.33 71.1 43.8 71.01L29.99 68.71C29.46 68.62 28.96 68.98 28.87 69.51Z" fill="#AAAAAF" fill-opacity="1.000000" fill-rule="evenodd"/>
	<path id="Vector" d="M28.08 72.58L28.05 72.78C27.96 73.3 28.32 73.8 28.84 73.89L42.65 76.19C43.18 76.27 43.68 75.92 43.77 75.39L43.8 75.2C43.89 74.67 43.53 74.17 43 74.08L29.19 71.79C28.67 71.7 28.17 72.05 28.08 72.58Z" fill="#AAAAAF" fill-opacity="1.000000" fill-rule="evenodd"/>
	<path id="Vector" d="M27.34 75.68L27.31 75.87C27.22 76.4 27.58 76.9 28.11 76.99L41.92 79.29C42.45 79.38 42.95 79.02 43.03 78.49L43.07 78.3C43.15 77.77 42.8 77.27 42.27 77.18L28.46 74.88C27.93 74.79 27.43 75.15 27.34 75.68Z" fill="#AAAAAF" fill-opacity="1.000000" fill-rule="evenodd"/>
	<g opacity="0.650000">
		<g opacity="0.650000">
			<path id="Vector" d="M41.28 29.59C42.11 29.4 42.72 29.18 43.27 29.04C43.71 28.92 44.17 28.86 44.63 28.88C44.88 28.9 45.14 28.87 45.38 28.79C45.63 28.72 45.86 28.59 46.05 28.43C46.25 28.26 46.41 28.06 46.53 27.83C46.65 27.6 46.72 27.36 46.74 27.1C46.76 26.85 46.73 26.59 46.65 26.34C46.58 26.1 46.45 25.87 46.29 25.68C46.12 25.48 45.92 25.32 45.69 25.2C45.47 25.08 45.22 25.01 44.96 24.99L44.91 24.99C44.04 24.95 43.16 25.05 42.31 25.29C41.58 25.48 40.92 25.71 40.46 25.82L40.43 25.82C39.95 25.94 39.52 26.25 39.26 26.68C39 27.11 38.91 27.62 39.02 28.11C39.13 28.6 39.43 29.03 39.85 29.31C40.27 29.58 40.78 29.68 41.28 29.59Z" fill="#FFFFFF" fill-opacity="1.000000" fill-rule="nonzero"/>
		</g>
		<g opacity="0.650000">
			<path id="Vector" d="M33.25 40.13C33.45 38.52 33.9 36.96 34.58 35.49C35.28 34.05 36.23 32.74 37.39 31.63C37.75 31.28 37.95 30.8 37.96 30.3C37.96 29.8 37.77 29.31 37.42 28.95C37.06 28.59 36.58 28.39 36.08 28.38C35.58 28.38 35.09 28.57 34.74 28.92C33.26 30.33 32.04 31.98 31.12 33.8C30.26 35.63 29.68 37.57 29.41 39.57C29.35 40.08 29.48 40.59 29.79 40.99C30.1 41.39 30.55 41.66 31.05 41.73C31.55 41.81 32.06 41.68 32.47 41.38C32.88 41.08 33.16 40.63 33.24 40.13L33.25 40.13Z" fill="#FFFFFF" fill-opacity="1.000000" fill-rule="nonzero"/>
		</g>
	</g>
	<g opacity="0.120000">
		<path id="Vector" d="M49.27 65.88C54.4 62.21 61.14 56.85 63.92 47.11C66.59 37.8 64.97 25.3 53.33 21.48L53.06 21.39C64.46 44.87 59.81 51.14 49.27 65.88Z" fill="#E84E19" fill-opacity="1.000000" fill-rule="nonzero"/>
	</g>
	<path id="Vector" d="M70.09 50.37L91.53 52.28C91.7 52.29 91.87 52.25 92 52.14C92.13 52.04 92.22 51.89 92.23 51.72C92.25 51.55 92.21 51.38 92.1 51.25C92 51.12 91.84 51.04 91.68 51.02L70.36 48.03C70.06 48 69.76 48.09 69.52 48.28C69.28 48.47 69.13 48.74 69.09 49.04C69.05 49.34 69.12 49.64 69.29 49.89C69.47 50.14 69.73 50.31 70.03 50.37L70.09 50.37Z" fill="#FFFFFF" fill-opacity="1.000000" fill-rule="nonzero"/>
	<path id="Vector" d="M71.6 34.64L91.8 29.36C91.93 29.32 92.03 29.24 92.1 29.13C92.17 29.01 92.19 28.88 92.16 28.75C92.12 28.63 92.05 28.52 91.94 28.46C91.83 28.39 91.71 28.37 91.58 28.39L71.08 32.35C70.77 32.41 70.5 32.58 70.33 32.84C70.15 33.1 70.09 33.42 70.15 33.73C70.21 34.04 70.39 34.31 70.64 34.48C70.9 34.66 71.22 34.72 71.53 34.66L71.6 34.64Z" fill="#FFFFFF" fill-opacity="1.000000" fill-rule="nonzero"/>
	<path id="Vector" d="M65.65 21.49L75.67 10.54C75.75 10.45 75.8 10.34 75.8 10.21C75.8 10.09 75.75 9.98 75.67 9.89C75.58 9.8 75.47 9.75 75.34 9.75C75.22 9.75 75.11 9.8 75.02 9.89L63.99 19.82C63.78 20.03 63.65 20.32 63.64 20.63C63.63 20.93 63.74 21.22 63.95 21.45C64.15 21.67 64.43 21.81 64.73 21.84C65.03 21.86 65.33 21.77 65.57 21.58C65.6 21.55 65.63 21.52 65.65 21.49Z" fill="#FFFFFF" fill-opacity="1.000000" fill-rule="nonzero"/>
	<path id="Vector" d="M53.37 15.09L55.38 0.96C55.39 0.89 55.39 0.82 55.37 0.75C55.35 0.69 55.32 0.63 55.28 0.57C55.24 0.52 55.19 0.47 55.13 0.44C55.07 0.41 55 0.39 54.93 0.38C54.81 0.36 54.68 0.39 54.57 0.46C54.47 0.53 54.39 0.64 54.36 0.77L51.04 14.65C50.98 14.95 51.04 15.26 51.2 15.51C51.37 15.77 51.63 15.95 51.92 16.02C52.22 16.09 52.53 16.05 52.79 15.89C53.05 15.74 53.25 15.49 53.33 15.2C53.35 15.17 53.36 15.13 53.37 15.09Z" fill="#FFFFFF" fill-opacity="1.000000" fill-rule="nonzero"/>
	<path id="Vector" d="M41.42 14.41L38.55 0.41C38.53 0.28 38.46 0.17 38.35 0.09C38.25 0.01 38.12 -0.02 37.99 0C37.86 0.02 37.75 0.09 37.67 0.19C37.59 0.3 37.56 0.43 37.58 0.56L39.08 14.78C39.12 15.09 39.27 15.37 39.52 15.57C39.76 15.77 40.07 15.86 40.38 15.83C40.69 15.79 40.98 15.64 41.18 15.39C41.37 15.15 41.46 14.84 41.43 14.53C41.43 14.49 41.43 14.45 41.42 14.41Z" fill="#FFFFFF" fill-opacity="1.000000" fill-rule="nonzero"/>
	<path id="Vector" d="M28.52 19.77L16.25 8.82C16.16 8.74 16.04 8.69 15.92 8.69C15.8 8.69 15.68 8.74 15.6 8.83C15.51 8.92 15.46 9.04 15.46 9.16C15.47 9.28 15.52 9.4 15.6 9.48L26.89 21.45C27 21.57 27.13 21.66 27.27 21.72C27.41 21.79 27.56 21.82 27.72 21.83C27.87 21.83 28.03 21.81 28.17 21.75C28.32 21.7 28.45 21.61 28.56 21.51C28.67 21.4 28.76 21.27 28.83 21.13C28.89 20.99 28.93 20.84 28.93 20.68C28.94 20.53 28.91 20.37 28.86 20.23C28.8 20.08 28.72 19.95 28.61 19.84C28.57 19.81 28.55 19.79 28.52 19.77Z" fill="#FFFFFF" fill-opacity="1.000000" fill-rule="nonzero"/>
	<path id="Vector" d="M22.95 32.39L0.51 24.26C0.41 24.25 0.31 24.27 0.22 24.32C0.13 24.37 0.06 24.45 0.03 24.54C-0.01 24.63 -0.02 24.73 0.01 24.83C0.04 24.93 0.1 25.01 0.18 25.07L22.08 34.55C22.36 34.66 22.68 34.65 22.95 34.53C23.23 34.41 23.45 34.19 23.57 33.91C23.69 33.64 23.7 33.32 23.6 33.04C23.5 32.76 23.29 32.52 23.02 32.39L22.95 32.39Z" fill="#FFFFFF" fill-opacity="1.000000" fill-rule="nonzero"/>
</svg>
