<svg width="96.000000" height="80.090424" viewBox="0 0 96 80.0904" fill="none" xmlns="http://www.w3.org/2000/svg" xmlns:xlink="http://www.w3.org/1999/xlink">
	<desc>
			Created with Pixso.
	</desc>
	<defs/>
	<path id="Vector" d="M89.7 14.92C94.23 18.34 97.41 23.91 95.36 27.58C93.83 30.3 76.09 65.64 67.04 71.76C56.41 78.96 13.06 80.04 12.18 80.08C9.86 80.2 1.07 67.28 0.3 58.98C-0.37 51.75 3.1 44.6 3.33 43.56C3.57 42.52 25.49 46.4 25.49 46.4L42.38 67.35L89.7 14.92Z" fill="#3B3B4D" fill-opacity="1.000000" fill-rule="nonzero"/>
	<path id="Vector" d="M2.08 43.17C-5.59 64.78 10.22 77.85 12.71 77.67C41.05 75.75 55.25 74.31 61.62 71.37C68 68.42 97.74 31.76 93.56 20.51C90.27 11.63 69.09 0 69.09 0C69.09 0 55.62 39.98 46.93 40.4C38.25 40.82 3.68 38.67 2.08 43.17Z" fill="#545466" fill-opacity="1.000000" fill-rule="nonzero"/>
	<path id="Vector" d="M69.75 4.69C75.3 10.1 91 18.35 90.85 22.23C90.36 33.88 67.02 64.77 65.76 62.53C64.49 60.29 50.67 41.7 52.43 40.16C57.71 35.48 69.75 4.69 69.75 4.69Z" fill="#FFFFFF" fill-opacity="1.000000" fill-rule="nonzero"/>
	<path id="Vector" d="M47.09 43.18C51.5 55.38 60.49 63.56 58.97 65.5C57.45 67.44 29.01 73.13 27.15 71.13C25.29 69.13 14.7 43.97 15.6 43.12C16.49 42.28 47.09 43.18 47.09 43.18Z" fill="#3B3B4D" fill-opacity="1.000000" fill-rule="nonzero"/>
	<path id="Vector" d="M15.9 52.57C17.3 59.17 21.24 63.9 19.62 65.11C18.01 66.32 9.04 68.15 8.18 67.3C7.32 66.46 3.6 56.75 5.17 53.1C5.83 51.55 14.75 47.12 15.9 52.57Z" fill="#3B3B4D" fill-opacity="1.000000" fill-rule="nonzero"/>
</svg>
