<svg width="119.963135" height="126.757950" viewBox="0 0 119.963 126.758" fill="none" xmlns="http://www.w3.org/2000/svg" xmlns:xlink="http://www.w3.org/1999/xlink">
	<desc>
			Created with Pixso.
	</desc>
	<defs/>
	<path id="Vector" d="M87.48 35.1C95.33 37.51 96.74 55.65 90.61 75.62C84.48 95.58 73.15 109.81 65.29 107.4C57.43 104.99 56.02 86.85 62.15 66.88C68.28 46.91 79.62 32.68 87.48 35.1Z" fill="#303646" fill-opacity="1.000000" fill-rule="evenodd"/>
	<path id="Vector" d="M86.16 34.69C93.45 36.93 94.4 54.93 88.27 74.9C82.14 94.86 71.27 109.24 63.98 107C56.68 104.76 55.74 86.76 61.87 66.8C68 46.83 78.87 32.46 86.16 34.69Z" fill="#FFFFFF" fill-opacity="1.000000" fill-rule="evenodd"/>
	<path id="Vector" d="M84.21 38.69C90.65 40.67 91.49 56.58 86.07 74.22C80.65 91.87 71.04 104.57 64.6 102.6C58.15 100.62 57.32 84.71 62.74 67.06C68.15 49.42 77.76 36.71 84.21 38.69Z" fill="#CD2B31" fill-opacity="1.000000" fill-rule="evenodd"/>
	<path id="Vector" d="M81.81 44.45C87.06 46.06 87.74 59.01 83.33 73.38C78.92 87.74 71.1 98.08 65.85 96.47C60.6 94.86 59.93 81.91 64.33 67.55C68.74 53.18 76.57 42.84 81.81 44.45Z" fill="#FFFFFF" fill-opacity="1.000000" fill-rule="evenodd"/>
	<path id="Vector" d="M80.33 48.59C84.59 49.9 85.14 60.41 81.55 72.08C77.97 83.75 71.61 92.14 67.35 90.83C63.09 89.52 62.54 79 66.13 67.34C69.71 55.67 76.07 47.28 80.33 48.59Z" fill="#CD2B31" fill-opacity="1.000000" fill-rule="evenodd"/>
	<path id="Vector" d="M77 55.98C79.85 56.85 80.22 63.89 77.82 71.69C75.43 79.49 71.18 85.11 68.33 84.24C65.48 83.36 65.11 76.33 67.5 68.52C69.9 60.72 74.15 55.1 77 55.98Z" fill="#FFFFFF" fill-opacity="1.000000" fill-rule="evenodd"/>
	<path id="Vector" d="M75.56 62.44C77 62.88 77.18 66.43 75.97 70.37C74.76 74.3 72.62 77.13 71.18 76.69C69.74 76.25 69.56 72.7 70.77 68.77C71.98 64.83 74.12 62 75.56 62.44Z" fill="#CD2B31" fill-opacity="1.000000" fill-rule="evenodd"/>
	<path id="Vector" d="M68.66 64.82C67.79 65.92 65.2 68.88 65.25 69.38C65.31 69.89 68.67 68.89 68.83 68.02C69 67.16 68.66 64.82 68.66 64.82Z" fill="#BAB3B4" fill-opacity="1.000000" fill-rule="nonzero"/>
	<path id="Vector" d="M6.88 36.42C7.2 36.3 11.07 34.91 11.94 35.1C12.53 35.27 13.07 35.58 13.51 36.01C11.01 37.26 9.46 38.04 8.32 37.4C7.73 37.06 7.28 36.85 7.03 36.7C6.78 36.55 6.73 36.49 6.88 36.42Z" fill="#FFFFFF" fill-opacity="1.000000" fill-rule="nonzero"/>
	<g opacity="0.090000">
		<path id="Vector" d="M6.88 36.42C7.2 36.3 11.07 34.91 11.94 35.1C11.7 35.61 8.4 37.34 7.03 36.7C6.8 36.56 6.73 36.49 6.88 36.42Z" fill="#1F1F39" fill-opacity="1.000000" fill-rule="nonzero"/>
	</g>
	<path id="Vector" d="M5.37 35.52C5.69 35.39 9.56 34 10.43 34.2C11.03 34.37 11.58 34.7 12.02 35.14C9.52 36.4 7.96 37.15 6.81 36.5C6.22 36.16 5.77 35.94 5.52 35.8C5.27 35.65 5.22 35.58 5.37 35.52Z" fill="#FFFFFF" fill-opacity="1.000000" fill-rule="nonzero"/>
	<g opacity="0.090000">
		<path id="Vector" d="M5.37 35.52C5.68 35.39 9.56 34 10.43 34.2C10.18 34.7 8.37 35.91 5.52 35.8C5.28 35.66 5.22 35.58 5.37 35.52Z" fill="#1F1F39" fill-opacity="1.000000" fill-rule="nonzero"/>
	</g>
	<path id="Vector" d="M3.66 34.45C4.32 34.41 4.97 34.26 5.59 34.01L5.61 34C6.91 33.49 8.28 33.03 8.72 33.12C9.37 33.33 9.96 33.7 10.43 34.2C7.92 35.46 6.25 36.08 5.1 35.42C4.51 35.08 4.06 34.87 3.81 34.72L3.73 34.67C3.56 34.57 3.53 34.5 3.66 34.45Z" fill="#FFFFFF" fill-opacity="1.000000" fill-rule="nonzero"/>
	<g opacity="0.090000">
		<path id="Vector" d="M3.66 34.45C4.32 34.41 4.97 34.26 5.59 34.01L5.61 34C6.94 33.5 8.33 33.05 8.77 33.15C8.53 33.66 6.06 34.74 3.86 34.75L3.73 34.67C3.56 34.57 3.53 34.5 3.66 34.45Z" fill="#1F1F39" fill-opacity="1.000000" fill-rule="nonzero"/>
	</g>
	<path id="Vector" d="M1.97 33.4C2.29 33.27 6.15 31.88 7.03 32.07C7.67 32.28 8.25 32.64 8.72 33.12C6.21 34.38 4.55 35.03 3.41 34.37C2.82 34.04 2.37 33.82 2.12 33.67C1.86 33.53 1.81 33.46 1.97 33.4Z" fill="#FFFFFF" fill-opacity="1.000000" fill-rule="nonzero"/>
	<g opacity="0.230000">
		<path id="Vector" d="M1.97 33.4C2.29 33.27 6.15 31.88 7.03 32.07C6.78 32.58 3.99 32.9 2.12 33.67C1.89 33.54 1.81 33.46 1.97 33.4Z" fill="#1F1F39" fill-opacity="1.000000" fill-rule="nonzero"/>
	</g>
	<path id="Vector" d="M5.87 31.11C5.97 31.36 6.12 31.58 6.33 31.75C7.54 32.82 67.37 68.97 67.52 69.19C67.53 69.23 67.6 69.23 67.68 69.21C67.8 69.18 67.91 69.13 68 69.07C68.5 68.77 69.12 68.1 68.45 67.5C68.39 67.44 68.32 67.39 68.26 67.35C68.26 67.35 8.71 30.16 7.54 30.04C6.6 29.94 5.64 30.39 5.87 31.11Z" fill="#543237" fill-opacity="1.000000" fill-rule="nonzero"/>
	<path id="Vector" d="M11.8 28.3C11.83 28.64 12.35 32.72 12.91 33.41C13.33 33.87 13.85 34.21 14.44 34.41C14.42 31.61 14.42 29.87 13.32 29.15C12.76 28.78 12.36 28.48 12.11 28.32C11.87 28.17 11.78 28.14 11.8 28.3Z" fill="#FFFFFF" fill-opacity="1.000000" fill-rule="nonzero"/>
	<g opacity="0.090000">
		<path id="Vector" d="M11.8 28.3C11.83 28.64 12.35 32.72 12.91 33.41C13.26 32.97 13.3 29.24 12.11 28.31C11.88 28.16 11.78 28.14 11.8 28.3Z" fill="#1F1F39" fill-opacity="1.000000" fill-rule="nonzero"/>
	</g>
	<path id="Vector" d="M10.31 27.36C10.34 27.7 10.85 31.78 11.42 32.47C11.85 32.93 12.39 33.27 12.99 33.46C12.98 30.67 12.93 28.93 11.83 28.21C11.26 27.83 10.87 27.53 10.62 27.38C10.37 27.22 10.29 27.2 10.31 27.36Z" fill="#FFFFFF" fill-opacity="1.000000" fill-rule="nonzero"/>
	<g opacity="0.090000">
		<path id="Vector" d="M10.31 27.36C10.34 27.7 10.85 31.78 11.42 32.47C11.77 32.03 12.01 29.86 10.62 27.37C10.39 27.22 10.29 27.2 10.31 27.36Z" fill="#1F1F39" fill-opacity="1.000000" fill-rule="nonzero"/>
	</g>
	<path id="Vector" d="M8.58 26.33C8.84 26.94 9 27.58 9.06 28.24C9.06 28.24 9.06 28.26 9.07 28.27C9.2 29.65 9.41 31.09 9.7 31.44C10.18 31.92 10.77 32.27 11.43 32.47C11.42 29.68 11.21 27.89 10.11 27.17C9.54 26.79 9.14 26.49 8.9 26.34L8.82 26.29C8.64 26.18 8.56 26.18 8.58 26.33Z" fill="#FFFFFF" fill-opacity="1.000000" fill-rule="nonzero"/>
	<g opacity="0.090000">
		<path id="Vector" d="M8.58 26.33C8.84 26.94 9 27.58 9.06 28.24C9.06 28.24 9.06 28.26 9.07 28.27C9.23 29.67 9.46 31.12 9.74 31.47C10.09 31.02 9.93 28.33 8.94 26.37L8.82 26.28C8.64 26.18 8.56 26.18 8.58 26.33Z" fill="#1F1F39" fill-opacity="1.000000" fill-rule="nonzero"/>
	</g>
	<path id="Vector" d="M6.87 25.29C6.9 25.63 7.42 29.71 7.99 30.4C8.46 30.88 9.04 31.24 9.69 31.44C9.68 28.65 9.49 26.86 8.4 26.13C7.83 25.76 7.43 25.46 7.19 25.3C6.94 25.15 6.86 25.13 6.87 25.29Z" fill="#FFFFFF" fill-opacity="1.000000" fill-rule="nonzero"/>
	<g opacity="0.230000">
		<path id="Vector" d="M6.87 25.29C6.9 25.63 7.42 29.71 7.99 30.4C8.33 29.96 7.35 27.32 7.19 25.3C6.96 25.15 6.86 25.13 6.87 25.29Z" fill="#1F1F39" fill-opacity="1.000000" fill-rule="nonzero"/>
	</g>
	<g opacity="0.470000">
		<path id="Vector" d="M5.87 31.11C5.97 31.36 6.13 31.58 6.33 31.75C7.54 32.82 67.37 68.97 67.52 69.19C67.57 69.26 67.77 69.2 68 69.07C60.99 64.57 11.44 34.28 5.87 31.11Z" fill="#1F1F39" fill-opacity="1.000000" fill-rule="nonzero"/>
	</g>
	<path id="Vector" d="M65.1 69.61C65.04 70.34 72.64 71.69 73.24 71.28L73.26 71.27C73.67 70.81 69.04 64.74 68.66 64.83C68.28 64.92 68.1 67.05 67.55 68.05L67.53 68.06C66.98 69.03 65.14 69.1 65.1 69.61Z" fill="#FFFFFF" fill-opacity="1.000000" fill-rule="nonzero"/>
	<g opacity="0.220000">
		<path id="Vector" d="M65.1 69.61C65.04 70.34 72.64 71.69 73.24 71.28C71 69.53 68.81 68.38 67.53 68.06C66.98 69.03 65.14 69.1 65.1 69.61Z" fill="#1F1F39" fill-opacity="1.000000" fill-rule="nonzero"/>
	</g>
</svg>
