<svg width="96.000000" height="31.000000" viewBox="0 0 96 31" fill="none" xmlns="http://www.w3.org/2000/svg" xmlns:xlink="http://www.w3.org/1999/xlink">
	<desc>
			Created with Pixso.
	</desc>
	<defs/>
	<rect id="Rectangle 29" rx="3.000000" width="96.000000" height="31.000000" fill="#FFFFFF" fill-opacity="1.000000"/>
	<rect id="Rectangle 29" x="0.500000" y="0.500000" rx="3.000000" width="95.000000" height="30.000000" stroke="#5970FF" stroke-opacity="0.510000" stroke-width="1.000000"/>
	<path id="Vector" d="M49.37 15.82C48.88 15.82 48.53 15.99 48.17 16.15L48.17 19.94C48.52 19.97 48.71 19.97 49.04 19.97C50.2 19.97 50.36 19.42 50.36 18.65L50.36 16.85C50.36 16.28 50.18 15.82 49.37 15.82ZM41.6 15.62C40.79 15.62 40.61 16.07 40.61 16.64L40.61 16.96L42.6 16.96L42.6 16.64C42.6 16.07 42.41 15.62 41.6 15.62ZM26.56 19.56C26.56 20 26.77 20.24 27.22 20.24C27.71 20.24 28 20.07 28.35 19.91L28.35 19.01L27.29 19.01C26.78 19.01 26.56 19.1 26.56 19.56ZM56.92 15.82C56.11 15.82 55.83 16.28 55.83 16.85L55.83 18.92C55.83 19.49 56.11 19.94 56.92 19.94C57.73 19.94 58.02 19.49 58.02 18.92L58.02 16.85C58.02 16.28 57.73 15.82 56.92 15.82ZM22.58 21.88L20.19 21.88L20.19 15.94L19 15.94L19 13.89L20.19 13.89L20.19 12.66C20.19 10.99 20.86 10 22.78 10L24.37 10L24.37 12.04L23.38 12.04C22.63 12.04 22.58 12.33 22.58 12.86L22.58 13.89L24.38 13.89L24.17 15.94L22.58 15.94L22.58 21.88ZM30.74 21.89L28.75 21.89L28.67 21.38C27.76 21.89 26.94 21.98 26.41 21.98C24.95 21.98 24.17 20.97 24.17 19.59C24.17 17.95 25.08 17.37 26.7 17.37L28.35 17.37L28.35 17.02C28.35 16.18 28.26 15.94 27.01 15.94L24.97 15.94L25.17 13.89L27.4 13.89C30.14 13.89 30.74 14.78 30.74 17.03L30.74 21.89ZM37.51 16.09C36.27 15.87 35.92 15.82 35.32 15.82C34.25 15.82 33.93 16.06 33.93 17L33.93 18.76C33.93 19.7 34.25 19.94 35.32 19.94C35.92 19.94 36.27 19.89 37.51 19.68L37.51 21.67C36.43 21.92 35.72 21.99 35.12 21.99C32.56 21.99 31.54 20.6 31.54 18.6L31.54 17.16C31.54 15.16 32.56 13.77 35.12 13.77C35.72 13.77 36.43 13.84 37.51 14.09L37.51 16.09ZM44.99 18.6L40.61 18.6L40.61 18.76C40.61 19.7 40.93 19.94 42 19.94C42.96 19.94 43.55 19.89 44.79 19.68L44.79 21.67C43.6 21.92 42.97 21.99 41.8 21.99C39.24 21.99 38.22 20.6 38.22 18.6L38.22 16.96C38.22 15.21 38.98 13.77 41.6 13.77C44.23 13.77 44.99 15.19 44.99 16.96L44.99 18.6ZM52.75 18.64C52.75 20.57 52.22 21.98 48.95 21.98C47.78 21.98 47.09 21.88 45.79 21.67L45.79 10.61L48.17 10.2L48.17 14.07C48.69 13.87 49.36 13.77 49.97 13.77C52.36 13.77 52.75 14.87 52.75 16.64L52.75 18.64L52.75 18.64ZM60.41 18.68C60.41 20.35 59.74 21.97 56.93 21.97C54.12 21.97 53.44 20.35 53.44 18.68L53.44 17.07C53.44 15.4 54.12 13.78 56.93 13.78C59.74 13.78 60.41 15.4 60.41 17.07L60.41 18.68ZM68.06 18.68C68.06 20.35 67.39 21.97 64.58 21.97C61.77 21.97 61.09 20.35 61.09 18.68L61.09 17.07C61.09 15.4 61.77 13.78 64.58 13.78C67.39 13.78 68.06 15.4 68.06 17.07L68.06 18.68ZM75.91 21.88L73.32 21.88L71.13 18.12L71.13 21.88L68.74 21.88L68.74 10.61L71.13 10.2L71.13 17.45L73.32 13.89L75.91 13.89L73.52 17.78L75.91 21.88ZM64.57 15.82C63.76 15.82 63.48 16.28 63.48 16.85L63.48 18.92C63.48 19.49 63.76 19.94 64.57 19.94C65.38 19.94 65.67 19.49 65.67 18.92L65.67 16.85C65.67 16.28 65.38 15.82 64.57 15.82ZM77.27 20.48C77.67 20.48 78 20.81 78 21.23C78 21.66 77.67 22 77.27 22C76.87 22 76.54 21.66 76.54 21.23C76.54 20.81 76.87 20.48 77.27 20.48L77.27 20.48ZM77.27 20.59C76.95 20.59 76.68 20.88 76.68 21.23C76.68 21.59 76.95 21.88 77.27 21.88C77.6 21.88 77.86 21.59 77.86 21.24C77.86 20.88 77.6 20.59 77.27 20.59L77.27 20.59ZM77.13 21.68L77 21.68L77 20.83C77.07 20.82 77.13 20.81 77.23 20.81C77.36 20.81 77.44 20.84 77.49 20.87C77.54 20.91 77.56 20.97 77.56 21.05C77.56 21.16 77.49 21.23 77.4 21.26L77.4 21.26C77.48 21.28 77.52 21.34 77.54 21.47C77.56 21.6 77.58 21.65 77.59 21.68L77.46 21.68C77.44 21.65 77.42 21.57 77.4 21.46C77.38 21.35 77.33 21.31 77.22 21.31L77.13 21.31L77.13 21.68L77.13 21.68ZM77.13 21.21L77.23 21.21C77.33 21.21 77.43 21.17 77.43 21.06C77.43 20.99 77.37 20.91 77.23 20.91C77.18 20.91 77.15 20.92 77.13 20.92L77.13 21.21Z" fill="#26559A" fill-opacity="1.000000" fill-rule="nonzero"/>
</svg>
