<svg width="96.000000" height="31.000000" viewBox="0 0 96 31" fill="none" xmlns="http://www.w3.org/2000/svg" xmlns:xlink="http://www.w3.org/1999/xlink">
	<desc>
			Created with Pixso.
	</desc>
	<defs/>
	<rect id="Rectangle 28" rx="3.000000" width="96.000000" height="31.000000" fill="#FFFFFF" fill-opacity="1.000000"/>
	<rect id="Rectangle 28" x="0.500000" y="0.500000" rx="3.000000" width="95.000000" height="30.000000" stroke="#5970FF" stroke-opacity="0.510000" stroke-width="1.000000"/>
	<path id="Vector" d="M43.44 16.3C43.44 19.11 41.24 21.19 38.53 21.19C35.83 21.19 33.63 19.11 33.63 16.3C33.63 13.46 35.83 11.4 38.53 11.4C41.24 11.4 43.44 13.46 43.44 16.3ZM41.29 16.3C41.29 14.54 40.02 13.33 38.53 13.33C37.05 13.33 35.78 14.54 35.78 16.3C35.78 18.04 37.05 19.26 38.53 19.26C40.02 19.26 41.29 18.04 41.29 16.3Z" fill="#EA4335" fill-opacity="1.000000" fill-rule="nonzero"/>
	<path id="Vector" d="M54.03 16.3C54.03 19.11 51.82 21.19 49.12 21.19C46.42 21.19 44.21 19.11 44.21 16.3C44.21 13.46 46.42 11.4 49.12 11.4C51.82 11.4 54.03 13.46 54.03 16.3ZM51.88 16.3C51.88 14.54 50.6 13.33 49.12 13.33C47.64 13.33 46.36 14.54 46.36 16.3C46.36 18.04 47.64 19.26 49.12 19.26C50.6 19.26 51.88 18.04 51.88 16.3Z" fill="#FBBC05" fill-opacity="1.000000" fill-rule="nonzero"/>
	<path id="Vector" d="M64.17 11.7L64.17 20.48C64.17 24.09 62.04 25.57 59.52 25.57C57.15 25.57 55.72 23.98 55.19 22.69L57.06 21.91C57.39 22.7 58.2 23.64 59.52 23.64C61.13 23.64 62.13 22.65 62.13 20.78L62.13 20.07L62.05 20.07C61.57 20.67 60.65 21.18 59.48 21.18C57.03 21.18 54.79 19.05 54.79 16.31C54.79 13.55 57.03 11.4 59.48 11.4C60.65 11.4 61.57 11.92 62.05 12.5L62.13 12.5L62.13 11.7L64.17 11.7L64.17 11.7ZM62.28 16.31C62.28 14.59 61.13 13.33 59.67 13.33C58.19 13.33 56.95 14.59 56.95 16.31C56.95 18.02 58.19 19.26 59.67 19.26C61.13 19.26 62.28 18.02 62.28 16.31Z" fill="#4285F4" fill-opacity="1.000000" fill-rule="nonzero"/>
	<path id="Vector" d="M67.53 6.55L67.53 20.89L65.44 20.89L65.44 6.55L67.53 6.55Z" fill="#34A853" fill-opacity="1.000000" fill-rule="nonzero"/>
	<path id="Vector" d="M75.7 17.91L77.36 19.02C76.82 19.81 75.53 21.18 73.29 21.18C70.51 21.18 68.43 19.04 68.43 16.29C68.43 13.38 70.53 11.4 73.05 11.4C75.59 11.4 76.83 13.42 77.23 14.51L77.46 15.07L70.92 17.78C71.42 18.76 72.2 19.26 73.29 19.26C74.38 19.26 75.14 18.72 75.7 17.91ZM70.56 16.15L74.93 14.33C74.69 13.72 73.97 13.29 73.12 13.29C72.03 13.29 70.51 14.26 70.56 16.15Z" fill="#EA4335" fill-opacity="1.000000" fill-rule="nonzero"/>
	<path id="Vector" d="M25.7 15.02L25.7 12.95L32.69 12.95C32.76 13.31 32.79 13.74 32.79 14.2C32.79 15.76 32.37 17.68 31 19.05C29.66 20.44 27.96 21.18 25.7 21.18C21.51 21.18 18 17.78 18 13.59C18 9.4 21.51 6 25.7 6C28.02 6 29.66 6.9 30.9 8.09L29.44 9.55C28.55 8.72 27.35 8.07 25.7 8.07C22.64 8.07 20.25 10.53 20.25 13.59C20.25 16.65 22.64 19.11 25.7 19.11C27.68 19.11 28.81 18.31 29.53 17.59C30.12 17 30.5 16.17 30.66 15.02L25.7 15.02Z" fill="#4285F4" fill-opacity="1.000000" fill-rule="nonzero"/>
</svg>
