<svg width="75.219238" height="92.064941" viewBox="0 0 75.2192 92.0649" fill="none" xmlns="http://www.w3.org/2000/svg" xmlns:xlink="http://www.w3.org/1999/xlink">
	<desc>
			Created with Pixso.
	</desc>
	<defs/>
	<path id="Vector" d="M59.96 62.76L53.38 61.39L61.71 21.28C62.02 19.18 61.56 17.03 60.41 15.25C49.92 0.71 32.84 6.62 30.22 19.17L22.72 55.02L16.13 53.65L24.54 13.28C24.98 11.19 25.87 9.22 27.16 7.52C28.45 5.82 30.1 4.43 31.99 3.45C53.2 -7.48 71 9.51 67.37 26.93L59.96 62.76Z" fill="#E0E0E0" fill-opacity="1.000000" fill-rule="nonzero"/>
	<path id="Vector" d="M59.96 62.76C59.96 62.76 60 62.51 60.1 62.04C60.2 61.58 60.34 60.87 60.52 59.96L62.19 51.98C62.91 48.52 63.77 44.29 64.78 39.38L66.45 31.53C66.97 28.74 67.82 25.83 67.86 22.67C67.91 19.37 67.21 16.11 65.81 13.12C65.62 12.74 65.45 12.34 65.26 11.95L64.59 10.83C64.14 10.07 63.64 9.35 63.1 8.65C62.83 8.28 62.51 7.97 62.22 7.62C61.93 7.28 61.65 6.93 61.3 6.63C60.66 5.99 59.97 5.38 59.24 4.83C57.76 3.67 56.14 2.71 54.42 1.96L53.08 1.45L52.32 1.2L51.62 1.02L50.21 0.65C49.72 0.55 49.24 0.5 48.76 0.41C44.74 -0.19 40.63 0.34 36.88 1.93C33.91 3.19 31.26 5.09 29.09 7.49C26.93 9.88 25.32 12.73 24.38 15.81C23.77 17.94 23.38 20.16 22.9 22.38C21.05 31.28 19.13 40.49 17.17 49.9C16.9 51.15 16.64 52.4 16.38 53.66L16.26 53.46L22.84 54.84L22.66 54.96C24.14 47.84 25.6 40.86 27.01 34.12C27.72 30.74 28.42 27.4 29.11 24.12L30.12 19.23C30.48 17.62 31.06 16.06 31.86 14.61C33.46 11.81 35.88 9.57 38.79 8.17C39.15 8.02 39.49 7.82 39.87 7.7L40.97 7.32C41.71 7.09 42.46 6.92 43.22 6.81C43.98 6.69 44.74 6.63 45.51 6.62C45.88 6.62 46.26 6.62 46.64 6.67L47.2 6.67L47.76 6.77C49.22 6.97 50.66 7.37 52.01 7.97C53.32 8.58 54.54 9.34 55.65 10.26C57.78 12.05 59.4 14.37 60.35 16.99C61.26 19.43 61.53 22.08 61.12 24.66L60.97 25.58C60.91 25.88 60.85 26.18 60.79 26.48L60.41 28.27C60.16 29.44 59.92 30.59 59.69 31.73C58.74 36.25 57.86 40.41 57.08 44.15C55.49 51.65 54.26 57.49 53.44 61.4L53.4 61.34L58.4 62.4L59.62 62.67L60.02 62.76L59.63 62.68L58.42 62.45L53.42 61.43L53.42 61.38L56.97 44.13C57.74 40.37 58.64 36.21 59.55 31.69C59.78 30.56 60.02 29.4 60.26 28.23C60.38 27.64 60.5 27.04 60.63 26.45C60.7 26.15 60.75 25.85 60.82 25.54C60.89 25.23 60.91 24.93 60.96 24.63C61.36 22.09 61.1 19.49 60.19 17.08C59.25 14.51 57.65 12.23 55.55 10.47C54.45 9.57 53.24 8.81 51.95 8.22C50.62 7.64 49.22 7.24 47.78 7.04L47.23 6.96L46.67 6.96C46.31 6.96 45.94 6.91 45.56 6.96C44.05 6.97 42.56 7.2 41.11 7.64L40.03 8.02C39.67 8.16 39.32 8.32 38.98 8.49C36.12 9.86 33.74 12.07 32.17 14.82C31.4 16.24 30.84 17.77 30.51 19.35C30.17 20.96 29.83 22.59 29.49 24.23C28.81 27.52 28.11 30.85 27.4 34.24L23.06 55.08L23.06 55.24L22.9 55.24L16.32 53.86L16.17 53.86L16.17 53.71C16.42 52.46 16.68 51.2 16.95 49.95C18.92 40.52 20.83 31.3 22.69 22.43C23.17 20.21 23.53 18 24.18 15.83C24.86 13.71 25.82 11.7 27.05 9.84C29.49 6.26 32.92 3.46 36.91 1.77C40.7 0.16 44.86 -0.36 48.93 0.25C49.42 0.33 49.92 0.39 50.4 0.49L52.07 0.92L52.96 1.2L54.29 1.7L54.91 1.96C56.54 2.7 58.08 3.63 59.49 4.74C60.22 5.31 60.91 5.92 61.57 6.57C61.83 6.85 62.08 7.15 62.32 7.46C62.61 7.81 62.94 8.12 63.2 8.49C63.75 9.2 64.25 9.94 64.71 10.7L65.38 11.83C65.58 12.23 65.75 12.67 65.94 13.02C67.35 16.04 68.04 19.35 67.98 22.68C67.98 25.87 67.07 28.79 66.55 31.59C66.02 34.38 65.41 37.01 64.88 39.47C63.85 44.38 62.95 48.64 62.22 52.06C61.5 55.49 60.92 58.19 60.55 60.01L60.11 62.07C60.02 62.53 59.96 62.76 59.96 62.76Z" fill="#263238" fill-opacity="1.000000" fill-rule="nonzero"/>
	<path id="Vector" d="M13.29 28.67L72.13 40.93C72.94 41.1 73.65 41.59 74.1 42.28C74.56 42.97 74.72 43.81 74.55 44.62L65.25 89.24C65.1 89.97 64.66 90.62 64.03 91.03C63.4 91.44 62.63 91.59 61.9 91.43L2.78 79.12L13.29 28.67Z" fill="#455A64" fill-opacity="1.000000" fill-rule="nonzero"/>
	<g opacity="0.300000">
		<path id="Vector" d="M13.32 28.72L71.85 40.92C72.74 41.1 73.52 41.64 74.02 42.4C74.52 43.16 74.7 44.09 74.51 44.98L65.35 88.97C65.18 89.79 64.69 90.51 63.99 90.97C63.29 91.43 62.44 91.59 61.62 91.42L2.81 79.16L13.32 28.72Z" fill="#000000" fill-opacity="1.000000" fill-rule="nonzero"/>
	</g>
	<path id="Vector" d="M13.79 28.78L64.54 39.36C65.42 39.54 66.19 40.06 66.68 40.81C67.18 41.57 67.35 42.48 67.17 43.36L58.19 86.43C57.97 87.51 57.32 88.46 56.4 89.07C55.47 89.67 54.34 89.89 53.26 89.66L3.42 79.28C2.97 79.18 2.55 79 2.17 78.74C1.79 78.48 1.46 78.15 1.21 77.77C0.96 77.38 0.78 76.95 0.7 76.5C0.61 76.05 0.62 75.59 0.71 75.14L9.82 31.41C10 30.54 10.52 29.77 11.27 29.28C12.01 28.79 12.92 28.61 13.79 28.78Z" fill="#455A64" fill-opacity="1.000000" fill-rule="nonzero"/>
	<g opacity="0.300000">
		<path id="Vector" d="M42.82 56.53C43.02 55.59 43.02 54.62 42.84 53.67C42.65 52.73 42.28 51.83 41.74 51.03C41.2 50.23 40.5 49.55 39.69 49.03C38.89 48.5 37.98 48.15 37.03 47.98C35.2 47.68 33.33 48.08 31.79 49.12C30.25 50.15 29.16 51.73 28.75 53.54C28.42 55.08 28.6 56.68 29.27 58.1C29.94 59.52 31.06 60.68 32.46 61.41L25.83 70.17L37.93 72.92L36.26 62.21C37.82 62.11 39.31 61.5 40.5 60.48C41.68 59.45 42.5 58.07 42.82 56.53Z" fill="#000000" fill-opacity="1.000000" fill-rule="nonzero"/>
	</g>
	<path id="Vector" d="M58.39 85.79C58.31 85.79 60.11 76.98 62.41 66.16C64.71 55.34 66.66 46.57 66.74 46.59C66.82 46.6 65.02 55.4 62.72 66.24C60.42 77.08 58.48 85.8 58.39 85.79Z" fill="#263238" fill-opacity="1.000000" fill-rule="nonzero"/>
	<path id="Vector" d="M54.29 38.84C54.29 38.92 46.51 37.48 36.96 35.62C27.4 33.76 19.66 32.19 19.68 32.1C19.69 32.02 27.45 33.45 37.02 35.31C46.58 37.17 54.31 38.72 54.29 38.84Z" fill="#FFFFFF" fill-opacity="1.000000" fill-rule="nonzero"/>
	<path id="Vector" d="M27.72 57.34C27.72 57.34 27.62 57.17 27.52 56.84C27.38 56.37 27.29 55.89 27.25 55.4C27.12 53.76 27.49 52.13 28.3 50.7C29.12 49.29 30.35 48.15 31.82 47.44C32.27 47.22 32.73 47.06 33.21 46.94C33.38 46.88 33.56 46.86 33.74 46.86C33.74 46.92 33 47.07 31.92 47.64C30.52 48.37 29.36 49.49 28.58 50.86C27.79 52.23 27.41 53.8 27.48 55.38C27.52 56.6 27.78 57.32 27.72 57.34Z" fill="#FFFFFF" fill-opacity="1.000000" fill-rule="nonzero"/>
	<path id="Vector" d="M29.81 61.23C29.75 61.3 29.36 61.04 28.97 60.66C28.58 60.28 28.28 59.92 28.34 59.83C28.4 59.73 28.78 60.03 29.17 60.4C29.56 60.78 29.86 61.23 29.81 61.23Z" fill="#FFFFFF" fill-opacity="1.000000" fill-rule="nonzero"/>
	<path id="Vector" d="M47.61 1.82C47.61 1.82 47.17 1.82 46.39 1.74C45.28 1.67 44.16 1.69 43.05 1.8C39.41 2.13 35.93 3.49 33.02 5.72C30.11 7.95 27.9 10.96 26.64 14.39C26.25 15.43 25.95 16.5 25.73 17.58C25.58 18.35 25.51 18.78 25.49 18.78C25.47 18.67 25.47 18.57 25.49 18.46C25.49 18.25 25.49 17.95 25.6 17.55C25.77 16.45 26.05 15.37 26.43 14.32C27.66 10.8 29.88 7.73 32.84 5.46C35.79 3.2 39.34 1.84 43.05 1.57C44.16 1.48 45.28 1.5 46.39 1.62C46.78 1.62 47.08 1.72 47.29 1.75C47.4 1.76 47.5 1.78 47.61 1.82Z" fill="#FFFFFF" fill-opacity="1.000000" fill-rule="nonzero"/>
	<path id="Vector" d="M24.09 24.17C24.07 23.53 24.16 22.9 24.35 22.3C24.43 21.67 24.61 21.07 24.9 20.51C24.92 21.13 24.84 21.76 24.65 22.36C24.57 22.99 24.38 23.6 24.09 24.17Z" fill="#FFFFFF" fill-opacity="1.000000" fill-rule="nonzero"/>
</svg>
