<svg width="96.000000" height="31.000000" viewBox="0 0 96 31" fill="none" xmlns="http://www.w3.org/2000/svg" xmlns:xlink="http://www.w3.org/1999/xlink">
	<desc>
			Created with Pixso.
	</desc>
	<defs/>
	<rect id="Rectangle 30" rx="3.000000" width="96.000000" height="31.000000" fill="#FFFFFF" fill-opacity="1.000000"/>
	<rect id="Rectangle 30" x="0.500000" y="0.500000" rx="3.000000" width="95.000000" height="30.000000" stroke="#5970FF" stroke-opacity="0.510000" stroke-width="1.000000"/>
	<path id="Name" d="M73.53 21.12C74.63 21.12 75.41 20.92 76 20.49L76 18.55C75.4 18.96 74.68 19.22 73.67 19.22C71.97 19.22 71.27 17.9 71.27 15.82C71.27 13.64 72.12 12.52 73.68 12.52C74.6 12.52 75.51 12.84 75.98 13.15L75.98 11.13C75.48 10.85 74.6 10.65 73.41 10.65C70.36 10.65 68.79 12.84 68.79 15.9C68.8 19.25 70.35 21.12 73.53 21.12ZM58.64 20.23L58.64 18.29C57.91 18.79 56.66 19.24 55.51 19.24C53.76 19.24 53.11 18.41 53 16.73L58.75 16.73L58.75 15.47C58.75 11.97 57.21 10.65 54.83 10.65C51.93 10.65 50.55 12.87 50.55 15.92C50.55 19.42 52.28 21.12 55.31 21.12C56.82 21.12 57.94 20.7 58.64 20.23ZM36.81 10.84L36.81 14.81L33.63 14.81L33.63 10.84L31.24 10.84L31.24 20.92L33.63 20.92L33.63 16.71L36.81 16.71L36.81 20.92L39.2 20.92L39.2 10.84L36.81 10.84ZM49.95 19.02L48.9 19.02L48.9 10.84L41.95 10.84L41.95 11.69C41.95 14.16 41.8 17.34 40.96 19.02L40.19 19.02L40.19 23.21L42.4 23.21L42.4 20.92L47.74 20.92L47.74 23.21L49.94 23.21L49.94 19.02L49.95 19.02ZM66.25 20.92L68.96 20.92L65.13 15.49L68.5 10.84L66.1 10.84L62.73 15.49L62.73 10.84L60.34 10.84L60.34 20.92L62.73 20.92L62.73 15.96L66.25 20.92ZM54.77 12.52C55.95 12.52 56.32 13.5 56.32 14.77L56.32 14.97L53 14.97C53.06 13.36 53.64 12.52 54.77 12.52ZM46.51 19.02L43.14 19.02C43.8 17.51 43.99 14.75 43.99 13.01L43.99 12.7L46.51 12.7L46.51 19.02Z" fill="#000000" fill-opacity="1.000000" fill-rule="nonzero"/>
	<path id="Glyph" d="M29.25 20.92L26.82 20.92L26.82 8.88L25.73 8.88C23.74 8.88 22.7 9.87 22.7 11.36C22.7 13.04 23.42 13.82 24.91 14.81L26.13 15.64L22.61 20.92L20 20.92L23.16 16.21C21.34 14.91 20.32 13.64 20.32 11.49C20.32 8.82 22.18 7 25.72 7L29.24 7L29.24 20.92L29.25 20.92Z" fill="#FC3F1D" fill-opacity="1.000000" fill-rule="nonzero"/>
</svg>
