<!-- icon666.com - MILLIONS vector ICONS FREE --><svg version="1.1" id="Capa_1" xmlns="http://www.w3.org/2000/svg" xmlns:xlink="http://www.w3.org/1999/xlink" x="0px" y="0px" viewBox="0 0 456 456" style="enable-background:new 0 0 456 456;" xml:space="preserve"><g><path style="fill:#37474F;" d="M232,380.032h-40c-2.208,0-4-1.792-4-4s1.792-4,4-4h40c2.208,0,4,1.792,4,4 S234.208,380.032,232,380.032z"></path><path style="fill:#37474F;" d="M176,380.032h-8c-2.208,0-4-1.792-4-4s1.792-4,4-4h8c2.208,0,4,1.792,4,4 S178.208,380.032,176,380.032z"></path><path style="fill:#37474F;" d="M128,16.032H88c-2.208,0-4-1.792-4-4s1.792-4,4-4h40c2.208,0,4,1.792,4,4S130.208,16.032,128,16.032 z"></path><path style="fill:#37474F;" d="M152,16.032h-8c-2.208,0-4-1.792-4-4s1.792-4,4-4h8c2.208,0,4,1.792,4,4S154.208,16.032,152,16.032z "></path></g><rect x="76.32" y="240.03" style="fill:#FFB300;" width="24" height="48"></rect><path style="fill:#37474F;" d="M100.28,292.032h-24c-2.208,0-4-1.792-4-4v-48c0-2.208,1.792-4,4-4h24c2.208,0,4,1.792,4,4v48 C104.28,290.248,102.496,292.032,100.28,292.032z M80.28,284.032h16v-40h-16V284.032z"></path><rect x="142.3" y="200.03" style="fill:#FF7043;" width="24" height="88"></rect><path style="fill:#37474F;" d="M166.304,292.032h-24c-2.208,0-4-1.792-4-4v-88c0-2.208,1.792-4,4-4h24c2.208,0,4,1.792,4,4v88 C170.304,290.248,168.512,292.032,166.304,292.032z M146.304,284.032h16v-80h-16V284.032z"></path><rect x="206.32" y="156" style="fill:#90CAF9;" width="24" height="132"></rect><g><path style="fill:#37474F;" d="M230.304,292.032h-24c-2.208,0-4-1.792-4-4v-132c0-2.208,1.792-4,4-4h24c2.208,0,4,1.792,4,4v132 C234.304,290.248,232.512,292.032,230.304,292.032z M210.304,284.032h16v-124h-16V284.032z"></path><path style="fill:#37474F;" d="M154.304,180.032c-1.024,0-2.048-0.392-2.832-1.168l-25.456-25.456l-25.456,25.456 c-1.56,1.56-4.096,1.56-5.656,0s-1.56-4.096,0-5.656l28.288-28.288c1.56-1.56,4.096-1.56,5.656,0l25.456,25.456l73.168-73.168 c1.56-1.56,4.096-1.56,5.656,0s1.56,4.096,0,5.656l-76,76C156.344,179.648,155.328,180.032,154.304,180.032z"></path><path style="fill:#37474F;" d="M230.304,136.032c-2.208,0-4-1.792-4-4v-28h-28c-2.208,0-4-1.792-4-4s1.792-4,4-4h32 c2.208,0,4,1.792,4,4v32C234.304,134.248,232.512,136.032,230.304,136.032z"></path><path style="fill:#37474F;" d="M276,332.032H28c-13.232,0-24-10.768-24-24v-228c0-13.232,10.768-24,24-24h248 c13.232,0,24,10.768,24,24v34.712c0,2.208-1.792,4-4,4s-4-1.792-4-4V80.032c0-8.824-7.176-16-16-16H28c-8.824,0-16,7.176-16,16v228 c0,8.824,7.176,16,16,16h248c8.824,0,16-7.176,16-16v-1.04c0-2.208,1.792-4,4-4s4,1.792,4,4v1.04 C300,321.272,289.232,332.032,276,332.032z"></path><path style="fill:#37474F;" d="M368,104c-28.672,0-52-23.328-52-52s23.328-52,52-52s52,23.328,52,52S396.672,104,368,104z M368,8 c-24.256,0-44,19.736-44,44s19.744,44,44,44c24.256,0,44-19.736,44-44S392.256,8,368,8z"></path></g><path style="fill:#FFB300;" d="M401.28,24.248l3.576-2.976C396.056,10.72,382.816,4,368,4c-26.512,0-48,21.488-48,48h4.528 C352.576,52,379.728,42.184,401.28,24.248z"></path><g><path style="fill:#37474F;" d="M324.528,56H320c-2.208,0-4-1.792-4-4c0-28.672,23.328-52,52-52 c15.456,0,30.008,6.816,39.928,18.704c0.68,0.816,1.008,1.864,0.912,2.928s-0.608,2.032-1.432,2.712l-3.576,2.976 C381.608,45.816,353.448,56,324.528,56z M324.176,48h0.352c27.048,0,53.4-9.528,74.192-26.832l0,0l0.36-0.304 C390.856,12.648,379.736,8,368,8C345.088,8,326.2,25.608,324.176,48z"></path><path style="fill:#37474F;" d="M367.96,147.744c-1.328,0-2.576-0.664-3.32-1.768l-24.032-35.704c-0.448-0.664-0.68-1.44-0.68-2.232 l-0.008-14.56c0-1.432,0.768-2.76,2.008-3.472s2.768-0.704,4.008,0.008c13.392,7.808,30.576,7.832,43.984,0.088 c1.232-0.712,2.768-0.712,4,0s2,2.032,2,3.464l0.008,14.384c0,0.8-0.232,1.568-0.68,2.232l-23.968,35.784 C370.536,147.072,369.296,147.744,367.96,147.744L367.96,147.744z M347.928,106.816l20.024,29.752l19.976-29.824L387.92,100 c-12.656,5.272-27.352,5.256-40-0.072L347.928,106.816z"></path><path style="fill:#37474F;" d="M440,264H295.96c-6.616,0-12-5.384-12-12v-91.272c0-16.776,9.328-31.856,24.336-39.36l33.84-16.912 c1.784-0.88,3.976-0.336,5.112,1.344l20.72,30.736l20.64-30.808c1.12-1.68,3.32-2.248,5.112-1.352l33.96,16.984 c15,7.504,24.32,22.592,24.32,39.36V252C452,258.616,446.616,264,440,264z M342.576,113.184l-30.704,15.336 c-12.28,6.136-19.912,18.48-19.912,32.2V252c0,2.208,1.8,4,4,4H440c2.2,0,4-1.792,4-4v-91.28c0-13.72-7.624-26.064-19.896-32.2 l-30.816-15.408l-21.704,32.408c-0.304,0.6-0.76,1.136-1.352,1.536c-0.696,0.464-1.56,0.736-2.248,0.68 c-0.824-0.056-1.552-0.208-2.248-0.672c-0.592-0.4-1.048-0.936-1.352-1.528L342.576,113.184z"></path><path style="fill:#37474F;" d="M367.96,179.744c-2.208,0-4-1.792-4-4v-32c0-2.208,1.792-4,4-4s4,1.792,4,4v32 C371.96,177.952,370.168,179.744,367.96,179.744z"></path><path style="fill:#37474F;" d="M320,264c-2.208,0-4-1.792-4-4v-80c0-2.208,1.792-4,4-4s4,1.792,4,4v80 C324,262.208,322.208,264,320,264z"></path><path style="fill:#37474F;" d="M416,264c-2.208,0-4-1.792-4-4v-80c0-2.208,1.792-4,4-4s4,1.792,4,4v80 C420,262.208,418.208,264,416,264z"></path><path style="fill:#37474F;" d="M408,456h-16.8c-6.168,0-11.288-4.616-11.936-10.744L368,338.216l-11.264,107.032 C356.088,451.384,350.96,456,344.8,456H328c-6.616,0-12-5.384-12-12V260c0-2.208,1.792-4,4-4h96c2.208,0,4,1.792,4,4v184 C420,450.616,414.616,456,408,456z M368,296c2.048,0,3.768,1.544,3.976,3.584l15.24,144.832c0.224,2.048,1.936,3.584,3.984,3.584 H408c2.2,0,4-1.792,4-4V264h-88v180c0,2.208,1.8,4,4,4h16.8c2.056,0,3.768-1.536,3.984-3.584l15.24-144.832 C364.232,297.544,365.952,296,368,296z"></path><path style="fill:#37474F;" d="M303.96,296c-11.032,0-20-8.976-20-20c0-2.208,1.792-4,4-4s4,1.792,4,4c0,6.616,5.384,12,12,12 c6.616,0,12-5.384,12-12c0-2.208,1.792-4,4-4s4,1.792,4,4C323.96,287.024,314.992,296,303.96,296z"></path><path style="fill:#37474F;" d="M431.96,296c-11.032,0-20-8.976-20-20c0-2.208,1.792-4,4-4s4,1.792,4,4c0,6.616,5.384,12,12,12 c6.616,0,12-5.384,12-12c0-2.208,1.792-4,4-4s4,1.792,4,4C451.96,287.024,442.992,296,431.96,296z"></path></g></svg>