<!-- icon666.com - MILLIONS vector ICONS FREE --><svg clip-rule="evenodd" fill-rule="evenodd" image-rendering="optimizeQuality" shape-rendering="geometricPrecision" text-rendering="geometricPrecision" viewBox="0 0 7111 7111" xmlns="http://www.w3.org/2000/svg"><g id="Layer_x0020_1"><g id="_181277112"><g fill="#55acee"><path d="m3556 1592h-3455c-58 0-104-46-104-104s46-104 104-104h3455c57 0 104 46 104 104s-47 104-104 104z"></path><path d="m7010 5717h-3454c-58 0-105-46-105-104s47-104 105-104h3454c58 0 104 46 104 104s-46 104-104 104z"></path><path d="m616 2107c-23 0-52-12-69-29l-515-515c-18-17-29-46-29-69 0-29 11-53 29-70l515-515c40-40 104-40 144 0 41 41 41 104 0 145l-445 440 445 439c41 41 41 104 0 145-23 17-52 29-75 29z"></path><path d="m6495 6232c-29 0-52-11-70-29-40-40-40-104 0-144l446-440-446-440c-40-40-40-104 0-144 41-41 105-41 145 0l515 515c17 17 29 46 29 69s-12 52-29 69l-515 515c-23 18-46 29-75 29z"></path></g><path d="m3556 5717c-1192 0-2164-972-2164-2164s972-2164 2164-2164c1191 0 2164 972 2164 2164s-973 2164-2164 2164z" fill="#bcdff9"></path><g><path d="m3801 2080h-491c-22 0-41 17-41 41l-17 294c-99 26-197 65-291 120l-220-197c-16-15-43-15-57 2l-350 350c-16 16-16 41-2 57l198 220c-53 91-94 187-121 291l-296 17c-22 0-41 19-41 41v491c0 22 17 41 41 41l296 17c27 99 65 197 121 291l-198 220c-14 16-14 40 2 57l350 350c14 14 41 16 57 0l220-198c91 53 188 94 291 121l17 296c0 21 19 41 41 41h491c22 0 41-17 41-41l17-296c99-27 198-66 291-121l220 198c17 14 41 14 57-3l350-349c17-17 17-41 2-58l-197-219c53-94 94-190 120-291l296-17c22 0 41-20 41-41v-492c0-21-17-41-41-41l-298-14c-27-99-65-198-121-291l198-220c14-16 14-43-3-57l-349-350c-17-17-41-17-58-2l-219 197c-94-53-190-94-291-120l-17-296c2-22-17-39-39-39zm-245 2194c-393 0-713-320-713-713 0-392 320-712 713-712 392 0 712 320 712 712 0 393-320 713-712 713z" fill="#5fd3ae"></path><path d="m3556 2762c-441 0-798 359-798 797 0 441 359 797 798 797 438 0 797-359 797-797s-357-797-797-797zm0 1512c-393 0-713-320-713-713 0-392 320-712 713-712 392 0 712 320 712 712 0 393-320 713-712 713z" fill="#4dab8d"></path></g></g></g></svg>