<!-- icon666.com - MILLIONS vector ICONS FREE --><svg viewBox="-95 0 470 470.472" xmlns="http://www.w3.org/2000/svg"><path d="m176.941406 196.472656h-113.496094c-8.839843 0-16-7.160156-16-16v-97.328125c0-8.839843 7.160157-16 16-16h113.488282c8.839844 0 16 7.160157 16 16v97.328125c.007812 8.839844-7.160156 16-15.992188 16zm0 0" fill="#84dbff" style="fill: rgb(2, 148, 145);"></path><path d="m58.171875 190.449219v-102.816407c0-5.175781 4.191406-9.367187 9.367187-9.367187h118.984376c1.96875 0 3.824218.398437 5.578124 1.007813-2.152343-7-8.601562-12.128907-16.304687-12.128907h-111.207031c-9.464844 0-17.136719 7.671875-17.136719 17.136719v95.046875c0 7.503906 4.847656 13.808594 11.558594 16.128906-.496094-1.585937-.839844-3.25-.839844-5.007812zm0 0" fill="#a9ebff"></path><path d="m211.035156 67.144531h-35.238281c9.464844 0 17.136719 7.671875 17.136719 17.136719v95.046875c0 9.464844-7.671875 17.136719-17.136719 17.136719h35.238281c9.464844 0 17.136719-7.671875 17.136719-17.136719v-95.039063c.007813-9.472656-7.671875-17.144531-17.136719-17.144531zm0 0" fill="#52badb"></path><path d="m176.933594 200.472656h-113.488282c-11.023437 0-20-8.96875-20-20v-97.328125c0-11.03125 8.976563-20 20-20h113.488282c11.023437 0 20 8.96875 20 20v97.328125c0 11.03125-8.96875 20-20 20zm-113.488282-129.328125c-6.617187 0-12 5.382813-12 12v97.328125c0 6.617188 5.382813 12 12 12h113.488282c6.613281 0 12-5.382812 12-12v-97.328125c0-6.617187-5.386719-12-12-12zm0 0" fill="#63312d"></path><path d="m211.035156 200.472656h-37.128906v-8h37.128906c7.25 0 13.144532-5.898437 13.144532-13.144531v-95.039063c0-7.242187-5.894532-13.144531-13.144532-13.144531h-41.773437v-8h41.773437c11.65625 0 21.144532 9.488281 21.144532 21.144531v95.046876c0 11.65625-9.488282 21.136718-21.144532 21.136718zm0 0" fill="#63312d"></path><path d="m101.875 196.472656h61.625v32.765625h-61.625zm0 0" fill="#fff2d2"></path><path d="m101.875 196.472656h61.625v11.679688h-61.625zm0 0" fill="#d8c18f"></path><path d="m140.699219 196.472656h22.800781v32.765625h-22.800781zm0 0" fill="#ead194"></path><path d="m140.699219 196.472656h22.800781v11.679688h-22.800781zm0 0" fill="#bfa064"></path><path d="m163.5 233.238281h-61.625c-2.207031 0-4-1.789062-4-4v-32.765625c0-2.207031 1.792969-4 4-4h61.625c2.207031 0 4 1.792969 4 4v32.765625c0 2.210938-1.792969 4-4 4zm-57.625-8h53.625v-24.765625h-53.625zm0 0" fill="#63312d"></path><path d="m136.699219 197.824219h8v32.894531h-8zm0 0" fill="#63312d"></path><path d="m228.179688 466.472656h-223.953126v-195.746094c0-22.085937 17.914063-40 40-40h143.945313c22.089844 0 40 17.914063 40 40v195.746094zm0 0" fill="#fff"></path><path d="m228.171875 470.472656h-223.9375c-2.207031 0-4-1.792968-4-4v-195.746094c0-24.261718 19.738281-44 44-44h143.9375c24.265625 0 44 19.738282 44 44v195.753907c0 2.207031-1.785156 3.992187-4 3.992187zm-219.9375-8h215.9375v-191.746094c0-19.847656-16.152344-36-36-36h-143.9375c-19.847656 0-36 16.152344-36 36zm0 0" fill="#63312d"></path><path d="m106.765625 112.984375c0 9.976563-8.089844 18.0625-18.066406 18.0625-9.976563 0-18.0625-8.085937-18.0625-18.0625s8.085937-18.0625 18.0625-18.0625c9.976562 0 18.066406 8.085937 18.066406 18.0625zm0 0" fill="#f9a287"></path><path d="m169.261719 112.984375c0 9.976563-8.089844 18.0625-18.066407 18.0625-9.976562 0-18.0625-8.085937-18.0625-18.0625s8.085938-18.0625 18.0625-18.0625c9.976563 0 18.066407 8.085937 18.066407 18.0625zm0 0" fill="#f9a287"></path><path d="m88.699219 135.046875c-12.167969 0-22.0625-9.894531-22.0625-22.0625s9.894531-22.0625 22.0625-22.0625 22.066406 9.894531 22.066406 22.0625-9.898437 22.0625-22.066406 22.0625zm0-36.125c-7.75 0-14.0625 6.300781-14.0625 14.0625 0 7.757813 6.3125 14.0625 14.0625 14.0625 7.753906 0 14.066406-6.304687 14.066406-14.0625 0-7.761719-6.3125-14.0625-14.066406-14.0625zm0 0" fill="#63312d"></path><path d="m151.195312 135.046875c-12.167968 0-22.0625-9.894531-22.0625-22.0625s9.894532-22.0625 22.0625-22.0625c12.167969 0 22.066407 9.894531 22.066407 22.0625s-9.90625 22.0625-22.066407 22.0625zm0-36.125c-7.757812 0-14.0625 6.300781-14.0625 14.0625 0 7.757813 6.3125 14.0625 14.0625 14.0625 7.753907 0 14.066407-6.304687 14.066407-14.0625 0-7.761719-6.3125-14.0625-14.066407-14.0625zm0 0" fill="#63312d"></path><path d="m124.597656 40.265625h8v28.320313h-8zm0 0" fill="#63312d"></path><path d="m146.722656 22.136719c0 10.015625-8.117187 18.128906-18.125 18.128906-10.019531 0-18.128906-8.121094-18.128906-18.128906 0-10.015625 8.109375-18.128907 18.128906-18.128907 10.015625 0 18.125 8.113282 18.125 18.128907zm0 0" fill="#fff2d2"></path><path d="m116.355469 28.023438c0-10.015626 8.121093-18.128907 18.128906-18.128907 3.496094 0 6.726563 1.035157 9.488281 2.746094-3.191406-5.167969-8.863281-8.640625-15.382812-8.640625-10.019532 0-18.128906 8.121094-18.128906 18.128906 0 6.519532 3.472656 12.191406 8.640624 15.382813-1.707031-2.757813-2.746093-5.992188-2.746093-9.488281zm0 0" fill="#fff"></path><path d="m128.597656 44.265625c-12.203125 0-22.128906-9.929687-22.128906-22.136719 0-12.207031 9.925781-22.128906 22.128906-22.128906 12.199219 0 22.125 9.921875 22.125 22.128906 0 12.207032-9.925781 22.136719-22.125 22.136719zm0-36.257813c-7.792968 0-14.128906 6.335938-14.128906 14.128907s6.335938 14.136719 14.128906 14.136719c7.789063 0 14.125-6.34375 14.125-14.136719s-6.335937-14.128907-14.125-14.128907zm0 0" fill="#63312d"></path><path d="m19.867188 104.960938h27.585937v38h-27.585937zm0 0" fill="#faf5f5"></path><path d="m47.445312 146.96875h-27.585937c-2.207031 0-4-1.792969-4-4v-38.007812c0-2.207032 1.792969-4 4-4h27.585937c2.207032 0 4 1.792968 4 4v38.007812c0 2.207031-1.785156 4-4 4zm-23.578124-8h19.585937v-30.007812h-19.585937zm0 0" fill="#63312d"></path><path d="m192.941406 104.960938h27.582032v38h-27.582032zm0 0" fill="#faf5f5"></path><path d="m220.523438 146.96875h-27.582032c-2.210937 0-4-1.792969-4-4v-38.007812c0-2.207032 1.789063-4 4-4h27.582032c2.207031 0 4 1.792968 4 4v38.007812c0 2.207031-1.792969 4-4 4zm-23.589844-8h19.582031v-30.007812h-19.582031zm0 0" fill="#63312d"></path><path d="m220.523438 104.960938h17.160156v38h-17.160156zm0 0" fill="#e3dfdf"></path><path d="m237.683594 146.96875h-17.160156c-2.207032 0-4-1.792969-4-4v-38.007812c0-2.207032 1.792968-4 4-4h17.160156c2.207031 0 4 1.792968 4 4v38.007812c0 2.207031-1.792969 4-4 4zm-13.160156-8h9.160156v-30.007812h-9.160156zm0 0" fill="#63312d"></path><path d="m88.699219 217.511719h-24.367188c-20.832031 0-37.785156-16.945313-37.785156-37.777344v-36.773437h8v36.773437c0 16.417969 13.359375 29.777344 29.785156 29.777344h24.367188zm0 0" fill="#63312d"></path><path d="m70.636719 190.472656h36.128906v23.046875h-36.128906zm0 0" fill="#f9a287"></path><path d="m106.765625 217.511719h-36.128906c-2.207031 0-4-1.792969-4-4v-23.046875c0-2.207032 1.792969-4 4-4h36.128906c2.207031 0 4 1.792968 4 4v23.046875c0 2.214843-1.792969 4-4 4zm-32.128906-8h28.128906v-15.046875h-28.128906zm0 0" fill="#63312d"></path><path d="m78.042969 326.640625h76.320312v76.320313h-76.320312zm0 0" fill="#f9dd9d"></path><g fill="#63312d"><path d="m132.859375 385.449219h-33.3125c-2.207031 0-4-1.792969-4-4v-33.304688c0-2.207031 1.792969-4 4-4h33.3125c2.207031 0 4 1.792969 4 4v33.304688c0 2.214843-1.792969 4-4 4zm-29.3125-8h25.3125v-25.304688h-25.3125zm0 0" fill="#63312d"></path><path d="m154.363281 406.960938h-76.328125c-2.207031 0-4-1.792969-4-4v-76.320313c0-2.207031 1.792969-4 4-4h76.328125c2.207031 0 4 1.792969 4 4v76.320313c0 2.207031-1.785156 4-4 4zm-72.320312-8h68.328125v-68.320313h-68.328125zm0 0" fill="#63312d"></path><path d="m89.074219 301.199219h8v25.441406h-8zm0 0" fill="#63312d"></path><path d="m112.203125 301.199219h8v25.441406h-8zm0 0" fill="#63312d"></path><path d="m135.332031 301.199219h8v25.441406h-8zm0 0" fill="#63312d"></path><path d="m89.074219 402.960938h8v25.445312h-8zm0 0" fill="#63312d"></path><path d="m112.203125 402.960938h8v25.445312h-8zm0 0" fill="#63312d"></path><path d="m135.332031 402.960938h8v25.445312h-8zm0 0" fill="#63312d"></path><path d="m52.605469 383.929688h25.4375v8h-25.4375zm0 0" fill="#63312d"></path><path d="m52.605469 360.800781h25.4375v8h-25.4375zm0 0" fill="#63312d"></path><path d="m52.605469 337.671875h25.4375v8h-25.4375zm0 0" fill="#63312d"></path><path d="m154.363281 383.929688h25.441407v8h-25.441407zm0 0" fill="#63312d"></path><path d="m154.363281 360.800781h25.441407v8h-25.441407zm0 0" fill="#63312d"></path><path d="m154.363281 337.671875h25.441407v8h-25.441407zm0 0" fill="#63312d"></path></g><path d="m235.46875 230.726562h-47.296875c22.089844 0 40 17.914063 40 40v195.746094h47.296875v-195.746094c0-22.09375-17.90625-40-40-40zm0 0" fill="#e3dfdf"></path><path d="m275.46875 470.472656h-47.296875c-2.207031 0-4-1.792968-4-4v-195.746094c0-19.847656-16.152344-36-36-36-2.207031 0-4-1.789062-4-4 0-2.207031 1.792969-4 4-4h47.296875c24.261719 0 44 19.738282 44 44v195.753907c0 2.207031-1.785156 3.992187-4 3.992187zm-43.296875-8h39.296875v-191.746094c0-19.847656-16.152344-36-36-36h-22.023438c11.320313 7.96875 18.726563 21.136719 18.726563 36zm0 0" fill="#63312d"></path></svg>